<mxfile host="app.diagrams.net" modified="2023-05-28T06:07:16.380Z" agent="Mozilla/5.0 (Windows NT 10.0; Win64; x64) AppleWebKit/537.36 (KHTML, like Gecko) Chrome/113.0.0.0 Safari/537.36" version="21.3.5" etag="9PoTUZNry1jf08yTfY-5" type="github">
  <diagram name="Page-1" id="fYjChEd2aUQlDtHxKr1k">
    <mxGraphModel>
      <root>
        <mxCell id="0" />
        <mxCell id="1" parent="0" />
      </root>
    </mxGraphModel>
  </diagram>
</mxfile>
